<svg xmlns="http://www.w3.org/2000/svg" viewBox="0 0 387.81 64"><path d="M67.17,20.63A20.35,20.35,0,0,0,67,18.41c0-.37-.11-.73-.19-1.09s-.15-.71-.24-1.07-.15-.55-.23-.83c-.14-.44-.28-.86-.44-1.29l0-.1-.32-.8c-.14-.34-.29-.66-.45-1l-.15-.31c-.1-.2-.2-.4-.31-.59-.22-.41-.46-.82-.73-1.23-.08-.14-.17-.28-.26-.41s-.31-.47-.48-.7l-.21-.29c-.16-.21-.32-.42-.5-.63s-.29-.37-.45-.55-.46-.53-.71-.79h0c-.3-.33-.62-.64-1-.94s-.66-.6-1-.89-.68-.54-1-.81l-.06,0c-.28-.2-.56-.39-.86-.58l-.21-.14L57,3.28,56.48,3A21.31,21.31,0,0,0,51.69.87L50.86.65Q50.41.53,50,.44C49.61.37,49.25.3,48.9.25L47.82.11l-.65,0-.48,0c-.34,0-.7,0-1,0H.6A.54.54,0,0,0,.2.16L.1.28A.62.62,0,0,0,0,.72a.37.37,0,0,0,0,.14L1.89,4.75l.54,1.11V45.93c0,.25,0,.51,0,.75a4.93,4.93,0,0,0,0,.55c0,.22,0,.43,0,.65s.07.54.11.8.1.6.16.89a8.63,8.63,0,0,0,.2.88,15.76,15.76,0,0,0,.52,1.69,0,0,0,0,0,0,0c.1.27.2.53.31.79l.36.81a.37.37,0,0,1,0,.11l.35.67c.18.32.36.63.55.94A18,18,0,0,0,38.42,46V43.34h7.19l1.11,0c.21,0,.42,0,.63-.05a3.92,3.92,0,0,0,.59,0c.53-.05,1.05-.13,1.56-.23.22,0,.43-.07.64-.12l.4-.09.76-.19.26-.08c.3-.08.6-.17.89-.27l.12,0c.29-.1.58-.2.86-.32l.29-.11.64-.28.51-.23c.28-.13.56-.27.83-.42l.57-.32c.18-.09.36-.2.54-.31s.59-.36.87-.56l.8-.57c.57-.43,1.12-.88,1.65-1.36l.33-.31.55-.55c.26-.26.51-.54.76-.82s.42-.48.62-.73.39-.5.58-.76.17-.23.25-.35.33-.47.48-.71.38-.6.56-.91.23-.38.33-.57a21.38,21.38,0,0,0,2.5-8.14c0-.14,0-.27,0-.41s0-.44,0-.66,0-.75,0-1.12S67.19,21,67.17,20.63ZM46.38,22.09H40.92a2.51,2.51,0,0,0-2.5,2.51h0V40.53a2.53,2.53,0,0,1-.73,1.78,2.49,2.49,0,0,1-1.77.74H20.05a2.51,2.51,0,0,1-2.51-2.52V24.62a2.51,2.51,0,0,1,2.51-2.52H35.93a2.5,2.5,0,0,0,2.48-2.26V14.1A1.55,1.55,0,0,1,38.85,13a1.53,1.53,0,0,1,1.07-.44h6.46a1.53,1.53,0,0,1,1.07.44,1.55,1.55,0,0,1,.44,1.08v6.48a1.51,1.51,0,0,1-.44,1.07A1.53,1.53,0,0,1,46.38,22.09Z" transform="translate(0 0)" fill="#2148ef"></path><path d="M67.2,21.67c0,.37,0,.75,0,1.12s0,.44,0,.66,0,.27,0,.41A21.38,21.38,0,0,1,64.59,32q-.15.28-.33.57c-.18.31-.36.61-.56.91s-.31.48-.48.71-.16.24-.25.35-.38.51-.58.76-.41.49-.62.73L47.45,21.65a1.51,1.51,0,0,0,.44-1.07V14.1A1.55,1.55,0,0,0,47.45,13l9.66-9.69.21.14c.3.19.58.38.86.58l.06,0c.36.27.7.53,1,.81s.68.58,1,.89.65.61,1,.94h0c.25.26.49.52.71.79s.31.36.45.55.34.42.5.63l.21.29c.17.23.33.47.48.7s.18.27.26.41c.27.41.51.82.73,1.23.11.19.21.39.31.59l.15.31c.16.33.31.65.45,1l.32.8,0,.1c.16.43.3.85.44,1.29.08.28.16.55.23.83s.17.71.24,1.07.14.72.19,1.09a18.14,18.14,0,0,1,.22,2.22C67.19,21,67.2,21.32,67.2,21.67Z" transform="translate(0 0)" fill="#fff" opacity="0.4" style="isolation:isolate"></path><path d="M57.11,3.33,47.45,13a1.53,1.53,0,0,0-1.07-.44H39.92a1.53,1.53,0,0,0-1.07.44l-13-13H45.64c.35,0,.71,0,1,0l.48,0,.65.05L48.9.25c.36,0,.71.12,1.06.19s.6.13.9.21l.83.22A21.31,21.31,0,0,1,56.48,3l.55.33Z" transform="translate(0 0)" fill="#fff" opacity="0.3" style="isolation:isolate"></path><path d="M38.85,13a1.55,1.55,0,0,0-.44,1.08v5.73a2.5,2.5,0,0,1-2.48,2.26H20.05a2.52,2.52,0,0,0-1.77.73L2.43,6.92V5.86L1.88,4.75.06.86A.37.37,0,0,1,0,.72.57.57,0,0,1,.09.28.43.43,0,0,1,.2.16.54.54,0,0,1,.6,0H25.88Z" transform="translate(0 0)" fill="#fff" opacity="0.2" style="isolation:isolate"></path><path d="M17.54,40.53a2.53,2.53,0,0,0,.73,1.78L5.15,55.49c-.19-.31-.37-.62-.55-.94l-.35-.67a.37.37,0,0,0,0-.11L3.84,53c-.11-.26-.21-.52-.31-.79a0,0,0,0,1,0,0A15.76,15.76,0,0,1,3,50.45a8.63,8.63,0,0,1-.2-.88c-.06-.29-.12-.59-.16-.89s-.08-.53-.11-.8,0-.43,0-.65a4.93,4.93,0,0,1,0-.55c0-.24,0-.5,0-.75v-39L18.28,22.83a2.52,2.52,0,0,0-.74,1.79Z" transform="translate(0 0)" fill="#fff" opacity="0.1" style="isolation:isolate"></path><path d="M61.77,36c-.25.28-.5.56-.76.82l-.55.55-.33.31c-.53.48-1.08.93-1.65,1.36l-.8.57c-.28.2-.58.38-.87.56s-.36.22-.54.31l-.57.32c-.27.15-.55.29-.83.42l-.51.23-.64.28-.29.11c-.28.12-.57.22-.86.32l-.12,0c-.29.1-.59.19-.89.27l-.26.08-.76.19-.4.09c-.21,0-.42.09-.64.12-.51.1-1,.18-1.56.23a3.92,3.92,0,0,1-.59,0c-.21,0-.42,0-.63.05l-1.11,0h-6.9l-1-1a2.53,2.53,0,0,0,.73-1.78V24.6h0a2.51,2.51,0,0,1,2.5-2.51h5.46a1.53,1.53,0,0,0,1.07-.44Z" transform="translate(0 0)" fill="#fff" opacity="0.2" style="isolation:isolate"></path><path d="M47.89,14.1v6.48a1.51,1.51,0,0,1-.44,1.07,1.53,1.53,0,0,1-1.07.44H40.92a2.51,2.51,0,0,0-2.5,2.51h0V40.53a2.53,2.53,0,0,1-.73,1.78,2.49,2.49,0,0,1-1.77.74H20.05a2.51,2.51,0,0,1-2.51-2.52V24.62a2.51,2.51,0,0,1,2.51-2.52H35.93a2.5,2.5,0,0,0,2.48-2.26V14.1A1.55,1.55,0,0,1,38.85,13a1.53,1.53,0,0,1,1.07-.44h6.46a1.53,1.53,0,0,1,1.07.44A1.55,1.55,0,0,1,47.89,14.1Z" transform="translate(0 0)" fill="#fff" class="white-block-logo"></path><path d="M97.37,27.65a9.48,9.48,0,0,1-3,1.28,14.24,14.24,0,0,1-3.65.48,10.15,10.15,0,0,1-5-1.19,8.36,8.36,0,0,1-3.35-3.32,10,10,0,0,1-1.2-5,10.89,10.89,0,0,1,1-4.9,19.24,19.24,0,0,0-5,3.53s-.3.28-.79.79a5.52,5.52,0,0,0,0,.58A14,14,0,0,0,78.15,27a12.52,12.52,0,0,0,4.9,4.81,14.71,14.71,0,0,0,7.25,1.75,20.27,20.27,0,0,0,5.13-.67,12.29,12.29,0,0,0,4-1.79ZM89.54,10.11l.72,0a10.82,10.82,0,0,1,4.07.81,7.81,7.81,0,0,1,3.08,2,3.83,3.83,0,0,0,1.3-1.24,2.94,2.94,0,0,0,.53-1.56A2.63,2.63,0,0,0,98,8.05a9.21,9.21,0,0,0-3.21-1.49A16.43,16.43,0,0,0,90.42,6a15,15,0,0,0-7.37,1.76,12.44,12.44,0,0,0-4.92,4.89A12.15,12.15,0,0,0,77,15.32,19.59,19.59,0,0,1,89.5,10.11Z" transform="translate(0 0)" fill="#2148ef"></path><path d="M122.1,6.69H100.38a2.59,2.59,0,0,0-.4.91,4.3,4.3,0,0,0-.18,1.19c0,1.37.76,2.06,2.26,2.06h7.6v1.37a12.32,12.32,0,0,1,1.77-.83,10.12,10.12,0,0,1,2.76-.54h9.58a2.75,2.75,0,0,0,.41-.92,4.46,4.46,0,0,0,.16-1.18C124.34,7.38,123.6,6.69,122.1,6.69Zm-12.44,8.63V32.88h4.53V13.55a8.35,8.35,0,0,0-2.74.73A13,13,0,0,0,109.66,15.32Z" transform="translate(0 0)" fill="#2148ef"></path><path d="M146.31,28.57H131.67V21.66H145.4s.06,0,.07,0a3.67,3.67,0,0,0,.38-.81,4,4,0,0,0,.21-1.33c0-1.43-.79-2.14-2.32-2.14H131.66V13.78a.15.15,0,0,0,0-.06.08.08,0,0,0-.07,0,9.35,9.35,0,0,0-4.6,1,.11.11,0,0,0-.06.09v18a.09.09,0,0,0,.1.09h19.3a.09.09,0,0,0,.09-.09V28.67a.09.09,0,0,0-.09-.1Z" transform="translate(0 0)" fill="#2148ef"></path><path d="M144.28,6.69H129.76c-1.89,0-2.85.9-2.85,2.67v2.3a.27.27,0,0,0,0,.07l.06,0h0a11.43,11.43,0,0,1,4.52-.75H146s.07,0,.08,0a7.32,7.32,0,0,0,.35-.79,3.8,3.8,0,0,0,.23-1.34C146.63,7.41,145.84,6.69,144.28,6.69Z" transform="translate(0 0)" fill="#2148ef"></path><path d="M150.16,15.76h0a.1.1,0,0,0,.09,0,10.75,10.75,0,0,1,3.29-3.66,13.75,13.75,0,0,1,7-2,15,15,0,0,1,3.11.31,16.9,16.9,0,0,1,2.5.71,10.65,10.65,0,0,1,1.79.89,5.66,5.66,0,0,1,1.06.83.11.11,0,0,0,.12,0,4.4,4.4,0,0,0,1-1.07,2.81,2.81,0,0,0,.54-1.66,2,2,0,0,0-.39-1.2,5,5,0,0,0-1-.93c-.21-.12-.52-.31-.95-.53a11,11,0,0,0-1.72-.68A19,19,0,0,0,164,6.23,23.11,23.11,0,0,0,160.46,6a16.34,16.34,0,0,0-4.79.62,10,10,0,0,0-3.28,1.71,6.35,6.35,0,0,0-1.89,2.53,8.15,8.15,0,0,0-.41,4.82.08.08,0,0,0,.08.07Z" transform="translate(0 0)" fill="#1d1d1b"></path><path d="M169.88,20.41a13.68,13.68,0,0,0-6.23-2.51l-4.24-.79a9.82,9.82,0,0,1-3.68-1.29A1.87,1.87,0,0,1,155,15a1.65,1.65,0,0,1-.12-.44s0-.05-.06-.07h-.08a7.66,7.66,0,0,0-3,4,.13.13,0,0,0,0,.14.81.81,0,0,0,.17.16c.15.14.3.26.49.41a9.65,9.65,0,0,0,2.64,1.41,18.07,18.07,0,0,0,3.08.8l4.16.76a14.93,14.93,0,0,1,2,.45,5,5,0,0,1,1.49.69,2.81,2.81,0,0,1,.91,1,2.91,2.91,0,0,1,.32,1.43,3,3,0,0,1-1.38,2.68,8.75,8.75,0,0,1-4.66.95,18.08,18.08,0,0,1-3.4-.3,20.25,20.25,0,0,1-2.78-.73,15.58,15.58,0,0,1-2.05-.87,11.06,11.06,0,0,1-1.23-.73s-.05,0-.07,0-.05,0-.06.05l-2,3.52a.08.08,0,0,0,0,.12c.31.2.79.49,1.44.84a15.77,15.77,0,0,0,2.47,1.05,24.7,24.7,0,0,0,3.38.87,22.42,22.42,0,0,0,4.17.36,18,18,0,0,0,4.76-.57,9.82,9.82,0,0,0,3.47-1.65,7.3,7.3,0,0,0,2.13-2.55,7.49,7.49,0,0,0,.72-3.32,6.2,6.2,0,0,0-2.11-5.06Z" transform="translate(0 0)" fill="#1d1d1b"></path><path d="M201.65,25.49a13.78,13.78,0,0,0,1.18-5.7,13.62,13.62,0,0,0-1.07-5.47,14.05,14.05,0,0,0-1.94-3.27,22.59,22.59,0,0,1-2.73,1.16,8.29,8.29,0,0,1-1.9.41,8.86,8.86,0,0,1,1.68,2.18,10.1,10.1,0,0,1,1.2,5,10.5,10.5,0,0,1-.63,3.68,9.41,9.41,0,0,1-1.77,3l-3.53-4.55a4.22,4.22,0,0,0-2.21.69,1.81,1.81,0,0,0-.84,1.49,3.77,3.77,0,0,0,1,2.06l2.09,2.67a9.33,9.33,0,0,1-3.31.58,8.83,8.83,0,0,1-8-4.66,10.11,10.11,0,0,1-1.2-5,10.2,10.2,0,0,1,1.2-5,8.87,8.87,0,0,1,8-4.64,10,10,0,0,1,1.48.11,6.9,6.9,0,0,0,1.57.08,15.77,15.77,0,0,0,3.8-.81,12.19,12.19,0,0,0,1.74-.74A13.47,13.47,0,0,0,194.4,7a15.2,15.2,0,0,0-11,0A13.48,13.48,0,0,0,179,9.93a13.79,13.79,0,0,0-3,4.39A14.11,14.11,0,0,0,175,19.79,14.06,14.06,0,0,0,176,25.25a13.79,13.79,0,0,0,3,4.39,13.32,13.32,0,0,0,4.41,2.9,14.59,14.59,0,0,0,5.5,1,14.35,14.35,0,0,0,6-1.26l3.58,4.54,3.35-2.55L198.45,30A13.76,13.76,0,0,0,201.65,25.49Z" transform="translate(0 0)" fill="#1d1d1b"></path><path d="M229.32,6.82a5.13,5.13,0,0,0-1.08-.13,2.67,2.67,0,0,0-1.74.55,1.92,1.92,0,0,0-.66,1.55v12q0,4.62-1.73,6.66t-5.61,2.05a12.73,12.73,0,0,1-2.26-.14c-1.65-.26-6.49-1.37-9.39-5a10.24,10.24,0,0,0,2.8,6.11c2,2.12,5,3.18,8.85,3.18s6.83-1.06,8.84-3.18,3-5.2,3-9.27v-14A8.06,8.06,0,0,0,229.32,6.82ZM211.58,24.55a13.14,13.14,0,0,1-.42-3.81V7.15a8.57,8.57,0,0,0-1-.33A5.15,5.15,0,0,0,209,6.69a2.66,2.66,0,0,0-1.73.55,1.93,1.93,0,0,0-.67,1.55V20.43A12.35,12.35,0,0,0,211.58,24.55Z" transform="translate(0 0)" fill="#1d1d1b"></path><path d="M258.18,30c-.5-1.29-1.1-2.8-1.76-4.48S255,22,254.25,20.14s-1.55-3.68-2.29-5.42-1.44-3.31-2.07-4.68-1.17-2.45-1.58-3.15l0,0-.3-.19c-.16-.09-.37-.18-.61-.29a5.19,5.19,0,0,0-.84-.27,4,4,0,0,0-1-.11,3.92,3.92,0,0,0-2.24.61,4.8,4.8,0,0,0-1.58,2.14c-.92,2-1.83,4.12-2.74,6.22-.57,1.3-1,2.34-1.56,3.62v.08a.15.15,0,0,0,.06.05,12.67,12.67,0,0,0,4.12.67s.07,0,.09-.06l.24-.58c.42-1,.74-1.78,1.17-2.77s.85-2,1.24-2.84.72-1.57,1-2.24c.21.44.49,1,.84,1.84s.81,1.87,1.25,2.93l1.34,3.3c.43,1.06.82,2.05,1.16,3h-8.91a9.9,9.9,0,0,1-4.54-.87.08.08,0,0,0-.11.05l-.06.14c-.86,2.06-1.68,4.09-2.46,6s-1.49,3.8-2.11,5.48a.1.1,0,0,0,0,.08s0,0,.08,0h4.53a.21.21,0,0,0,.09,0c.27-.79.64-1.78,1.07-2.94s.92-2.42,1.47-3.79h12.53c.2.49.42,1.06.66,1.68s.5,1.33.73,1.95.44,1.19.67,1.81.36,1,.49,1.29a.09.09,0,0,0,.09.06h5s.07,0,.08,0a.07.07,0,0,0,0-.09q-.3-.84-1.05-2.79Z" transform="translate(0 0)" fill="#1d1d1b"></path><path d="M282.36,30.09c-.49-.94-1-1.89-1.52-2.82s-1.07-1.86-1.61-2.76-1-1.63-1.55-2.33a8.45,8.45,0,0,0,3.5-2.76,7.53,7.53,0,0,0,1.33-4.56,8.21,8.21,0,0,0-.75-3.54,7.62,7.62,0,0,0-2.23-2.72,10.22,10.22,0,0,0-3.73-1.72,21.15,21.15,0,0,0-5.2-.57c-2,0-3.47,0-4.51.13s-1.75.18-2.13.25a3.25,3.25,0,0,0-1.51.74,2.3,2.3,0,0,0-.63,1.81v5.35a.18.18,0,0,0,0,.08,9.74,9.74,0,0,0,4.42,1.75.1.1,0,0,0,.07,0,.09.09,0,0,0,0-.07v-5.8a11,11,0,0,1,1.22-.14c.66,0,1.63-.07,2.88-.07a14.05,14.05,0,0,1,3.55.38,6.27,6.27,0,0,1,2.22,1,3.45,3.45,0,0,1,1.14,1.44,4.84,4.84,0,0,1,0,3.59,3.21,3.21,0,0,1-1.18,1.43,6.65,6.65,0,0,1-2.19.93,14.18,14.18,0,0,1-3.39.34c-1.1,0-2,0-2.6-.09a14.47,14.47,0,0,1-4.92-1,9.6,9.6,0,0,1-1.13-.52.14.14,0,0,0-.09,0,.09.09,0,0,0,0,.08V32.8a.09.09,0,0,0,.09.08h4.38a.1.1,0,0,0,.1-.08V23.19c.33,0,.86.1,1.56.16s1.62.1,2.5.1c.4,0,.84,0,1.3,0l1.3-.1c.34.47.77,1.15,1.29,2s1.05,1.83,1.57,2.8,1,1.9,1.48,2.76.78,1.52,1,2a.11.11,0,0,0,.09,0h5.21s.07,0,.08,0,0-.05,0-.09c-.44-.86-.9-1.75-1.38-2.65Z" transform="translate(0 0)" fill="#1d1d1b"></path><path d="M306.39,28.57H291.74V21.66h13.74a.17.17,0,0,0,.07,0,3.33,3.33,0,0,0,.37-.81,4,4,0,0,0,.21-1.33c0-1.43-.78-2.14-2.32-2.14H291.73V13.78a.08.08,0,0,0,0-.06s0,0-.06,0a9.36,9.36,0,0,0-4.61,1,.11.11,0,0,0,0,.09v18a.09.09,0,0,0,.09.09h19.31a.09.09,0,0,0,.09-.09V28.67a.09.09,0,0,0-.09-.1Z" transform="translate(0 0)" fill="#1d1d1b"></path><path d="M304.35,6.69H289.84c-1.89,0-2.85.9-2.85,2.67v2.3a.13.13,0,0,0,0,.07l.05,0h0a11.32,11.32,0,0,1,4.52-.75h14.43a.14.14,0,0,0,.08,0,7.32,7.32,0,0,0,.35-.79,3.8,3.8,0,0,0,.23-1.34C306.71,7.41,305.91,6.69,304.35,6.69Z" transform="translate(0 0)" fill="#1d1d1b"></path><path d="M78.83,49.27l.54-3.64h-3v-1h3.09l.59-4.49H81l-.59,4.49h2.48l.61-4.49h.89l-.59,4.49h2.37v1H83.69l-.54,3.64h3v1H83L82.4,55h-.89l.61-4.68h-2.5L79,55h-.92l.59-4.68h-2.3v-1Zm3.43,0,.52-3.64H80.29l-.55,3.64Z" transform="translate(0 0)" fill="#1c2024"></path><path d="M98.05,41.82a7.44,7.44,0,0,0-3.11-.68c-3.27,0-4.8,1.55-4.8,6.25,0,5,1.55,6.6,4.86,6.6a6.37,6.37,0,0,0,3.09-.77l.2,1.12a7.47,7.47,0,0,1-3.45.89c-4.17,0-6-2.39-6-7.84s1.88-7.49,6-7.49a8.4,8.4,0,0,1,3.35.71Z" transform="translate(0 0)" fill="#1c2024"></path><path d="M107.43,53.32h-.07a3.93,3.93,0,0,1-3.51,1.84c-2,0-3.46-1-3.46-3.66,0-2.21,1.32-3.48,4.08-3.48a8,8,0,0,1,2.8.52V47.08c0-2.21-.89-2.93-2.88-2.93a6.69,6.69,0,0,0-3.19.73l-.13-1.05a8,8,0,0,1,3.52-.77c2.75,0,3.86,1.16,3.86,4.19V55h-.88l-.13-1.65Zm-.16-3.85a5.22,5.22,0,0,0-2.64-.56c-2.18,0-3.13.93-3.13,2.55a2.35,2.35,0,0,0,2.65,2.65c1.64,0,3.12-1.18,3.12-2.3Z" transform="translate(0 0)" fill="#1c2024"></path><path d="M114.65,55.2a5.49,5.49,0,0,1-3.44-1.07l.19-1.08a5.13,5.13,0,0,0,3.23,1.1c1.91,0,2.71-1,2.71-2.35,0-3.13-6.08-1.78-6.08-5.64,0-1.89,1.32-3.06,3.74-3.06a6.5,6.5,0,0,1,3,.67l-.11,1.06a6.81,6.81,0,0,0-2.86-.66c-1.61,0-2.62.75-2.62,1.94,0,2.9,6.06,1.46,6.06,5.58,0,2.11-1.16,3.52-3.78,3.52Z" transform="translate(0 0)" fill="#1c2024"></path><path d="M127.63,53.32h-.06a3.94,3.94,0,0,1-3.51,1.84c-2,0-3.46-1-3.46-3.66,0-2.21,1.32-3.48,4.07-3.48a7.94,7.94,0,0,1,2.8.52V47.08c0-2.21-.89-2.93-2.88-2.93a6.68,6.68,0,0,0-3.18.73l-.13-1.05a8,8,0,0,1,3.51-.77c2.75,0,3.86,1.16,3.86,4.19V55h-.87l-.13-1.65Zm-.16-3.85a5.14,5.14,0,0,0-2.63-.56c-2.18,0-3.14.93-3.14,2.55a2.36,2.36,0,0,0,2.66,2.65c1.64,0,3.11-1.18,3.11-2.3Z" transform="translate(0 0)" fill="#1c2024"></path><path d="M136.34,41.4V55h-1.26V41.4h-4.49l0-1.26h10.19l0,1.26Z" transform="translate(0 0)" fill="#1c2024"></path><path d="M142.29,48.73c0-3.65,1.51-5.63,4.49-5.63,2.54,0,4.31,1.6,4.31,5.38,0,.18,0,.43,0,.59h-7.59c.06,3.74,1.26,5,3.95,5a6.21,6.21,0,0,0,3.12-.83l.15,1a6.38,6.38,0,0,1-3.37.91c-3.6,0-5-2-5-6.46Zm7.73-.51c0-2.95-1.37-4-3.24-4-2.22,0-3.21,1.36-3.33,4Z" transform="translate(0 0)" fill="#1c2024"></path><path d="M160.59,44.86a5.62,5.62,0,0,0-2.49-.61c-2.64,0-3.66,1.4-3.66,4.74,0,3.78,1.24,5.12,3.63,5.12a4.33,4.33,0,0,0,2.59-.8l.12,1a5,5,0,0,1-2.93.87c-3.09,0-4.62-1.82-4.62-6.23,0-4,1.41-5.89,4.64-5.89a6.32,6.32,0,0,1,2.8.66l-.09,1.1Z" transform="translate(0 0)" fill="#1c2024"></path><path d="M170.72,55V47.09c0-2-1.07-2.85-3-2.85a3.74,3.74,0,0,0-3.08,1.58V55h-1.14V43.32l.82-.08.21,1.4h.06A4.38,4.38,0,0,1,168,43.09c2.39,0,3.84,1.29,3.84,4V55h-1.16Z" transform="translate(0 0)" fill="#1c2024"></path><path d="M179.32,55.22c-3.29,0-4.76-1.7-4.76-6.06s1.49-6,4.76-6,4.69,1.72,4.69,6S182.61,55.22,179.32,55.22Zm0-1c2.51,0,3.49-1.39,3.49-5s-1-5-3.49-5-3.56,1.36-3.56,5S176.78,54.17,179.32,54.17Z" transform="translate(0 0)" fill="#1c2024"></path><path d="M187.35,55V39.23l1.15-.08V55Z" transform="translate(0 0)" fill="#1c2024"></path><path d="M196.6,55.22c-3.29,0-4.76-1.7-4.76-6.06s1.49-6,4.76-6,4.69,1.72,4.69,6S199.89,55.22,196.6,55.22Zm0-1c2.51,0,3.49-1.39,3.49-5s-1-5-3.49-5-3.55,1.36-3.55,5S194.06,54.17,196.6,54.17Z" transform="translate(0 0)" fill="#1c2024"></path><path d="M206.13,49.67c-.77.18-1.17.57-1.17,1.07s.35.82,1.28.92l2.59.28c2.77.3,3.6,1.17,3.6,2.7,0,2.06-1.15,3.36-4.57,3.36-3,0-4.2-1.22-4.2-3.08a3.06,3.06,0,0,1,1.24-2.39,1.66,1.66,0,0,1-1-1.56,1.87,1.87,0,0,1,1.45-1.68A2.93,2.93,0,0,1,204,46.52c0-2.19,1.06-3.42,3.8-3.42a4.35,4.35,0,0,1,2.75.81l1.81-.85.27.61-1.45,1a3.86,3.86,0,0,1,.4,1.82c0,2.19-.95,3.38-3.78,3.38a5.86,5.86,0,0,1-1.62-.22Zm-.21,3.08a2.55,2.55,0,0,0-1.23,2c0,1.38.92,2.21,3.14,2.21,2.78,0,3.51-.89,3.51-2.19,0-1-.49-1.57-2.67-1.76Zm-.85-6.21c0,2,1.15,2.39,2.66,2.39,2.07,0,2.69-.83,2.69-2.39,0-1.8-.82-2.43-2.67-2.43S205.07,44.92,205.07,46.54Z" transform="translate(0 0)" fill="#1c2024"></path><path d="M216.11,40.91c-.58,0-.9-.2-.9-.83s.32-.82.9-.82.89.29.89.82S216.68,40.91,216.11,40.91Zm-.59,2.45,1.16-.1V55h-1.16Z" transform="translate(0 0)" fill="#1c2024"></path><path d="M220.14,48.73c0-3.65,1.51-5.63,4.49-5.63,2.54,0,4.31,1.6,4.31,5.38a5.54,5.54,0,0,1,0,.59h-7.59c.06,3.74,1.26,5,4,5a6.21,6.21,0,0,0,3.12-.83l.15,1a6.38,6.38,0,0,1-3.37.91c-3.6,0-5-2-5-6.46Zm7.74-.51c0-2.95-1.38-4-3.25-4-2.21,0-3.21,1.36-3.33,4Z" transform="translate(0 0)" fill="#1c2024"></path><path d="M241,53.74,240.9,55h-8.79V40.14h8.45l.06,1.22h-7.26v5.27h6.29v1.11h-6.29v6H241Z" transform="translate(0 0)" fill="#1c2024"></path><path d="M256.65,55V47a2.47,2.47,0,0,0-2.74-2.77,2.42,2.42,0,0,0-2.56,2.5V55h-1.14V46.77a2.3,2.3,0,0,0-2.56-2.5,3.25,3.25,0,0,0-2.75,1.56V55h-1.15V43.32l.82-.08.23,1.41h.06a3.61,3.61,0,0,1,3-1.51A2.93,2.93,0,0,1,251,45.08H251a3.21,3.21,0,0,1,3.17-2c2.14,0,3.61,1.22,3.61,3.89v8Z" transform="translate(0 0)" fill="#1c2024"></path><path d="M260.48,48.73c0-3.65,1.51-5.63,4.49-5.63,2.54,0,4.31,1.6,4.31,5.38a5.54,5.54,0,0,1,0,.59h-7.59c.07,3.74,1.26,5,3.95,5a6.21,6.21,0,0,0,3.12-.83l.16,1a6.44,6.44,0,0,1-3.38.91c-3.59,0-5-2-5-6.46Zm7.74-.51c0-2.95-1.37-4-3.25-4-2.21,0-3.21,1.36-3.32,4Z" transform="translate(0 0)" fill="#1c2024"></path><path d="M272.15,55V43.36l.94-.08,0,1.3,0,1.6h0c.65-1.81,2-3,3.66-3a3.65,3.65,0,0,1,1.07.13l-.09,1.25a3,3,0,0,0-1-.16c-1.91,0-3.51,1.81-3.51,4.64v6h-1.13Z" transform="translate(0 0)" fill="#1c2024"></path><path d="M282.42,49.67c-.76.18-1.16.57-1.16,1.07s.35.82,1.28.92l2.59.28c2.77.3,3.6,1.17,3.6,2.7,0,2.06-1.15,3.36-4.57,3.36-3,0-4.2-1.22-4.2-3.08a3.06,3.06,0,0,1,1.24-2.39,1.66,1.66,0,0,1-1-1.56,1.87,1.87,0,0,1,1.45-1.68,2.93,2.93,0,0,1-1.37-2.77c0-2.19,1.06-3.42,3.8-3.42a4.35,4.35,0,0,1,2.75.81l1.81-.85.27.61-1.45,1a3.86,3.86,0,0,1,.4,1.82c0,2.19-.95,3.38-3.78,3.38a6,6,0,0,1-1.63-.22Zm-.2,3.08a2.55,2.55,0,0,0-1.23,2c0,1.38.92,2.21,3.14,2.21,2.78,0,3.51-.89,3.51-2.19,0-1-.49-1.57-2.67-1.76Zm-.84-6.21c0,2,1.14,2.39,2.65,2.39,2.07,0,2.69-.83,2.69-2.39,0-1.8-.82-2.43-2.67-2.43S281.38,44.92,281.38,46.54Z" transform="translate(0 0)" fill="#1c2024"></path><path d="M290.56,48.73c0-3.65,1.51-5.63,4.48-5.63,2.55,0,4.32,1.6,4.32,5.38a5.47,5.47,0,0,1,0,.59h-7.58c.06,3.74,1.26,5,3.95,5a6.15,6.15,0,0,0,3.11-.83l.16,1a6.41,6.41,0,0,1-3.38.91c-3.59,0-5-2-5-6.46Zm7.73-.51c0-2.95-1.37-4-3.25-4-2.21,0-3.21,1.36-3.32,4Z" transform="translate(0 0)" fill="#1c2024"></path><path d="M309.43,55V47.09c0-2-1.07-2.85-3-2.85a3.72,3.72,0,0,0-3.07,1.58V55h-1.15V43.32l.82-.08.21,1.4h.06a4.39,4.39,0,0,1,3.42-1.55c2.39,0,3.84,1.29,3.84,4V55h-1.15Z" transform="translate(0 0)" fill="#1c2024"></path><path d="M315.84,44.27v7.89c0,1.4.7,2,1.83,2a2.8,2.8,0,0,0,1-.16l.09,1a3.9,3.9,0,0,1-1.35.23c-1.76,0-2.69-1-2.69-3V44.27h-1.76v-1h1.78l.23-3.07.92-.11V43.3h3v1Z" transform="translate(0 0)" fill="#1c2024"></path><path d="M322.51,40.91c-.58,0-.9-.2-.9-.83s.32-.82.9-.82.89.29.89.82S323.08,40.91,322.51,40.91Zm-.59,2.45,1.16-.1V55h-1.16Z" transform="translate(0 0)" fill="#1c2024"></path><path d="M332.13,49h-3.31v6h-1.25V40.14h4.56c3.25,0,4.66,1.3,4.66,4.41S335.42,49,332.13,49Zm0-7.68h-3.31v6.54h3.31c2.23,0,3.38-.79,3.38-3.29S334.42,41.3,332.13,41.3Z" transform="translate(0 0)" fill="#1c2024"></path><path d="M338.87,48.73c0-3.65,1.51-5.63,4.48-5.63,2.55,0,4.32,1.6,4.32,5.38a5.47,5.47,0,0,1,0,.59h-7.58c.06,3.74,1.25,5,3.94,5a6.16,6.16,0,0,0,3.12-.83l.16,1a6.41,6.41,0,0,1-3.38.91c-3.59,0-5-2-5-6.46Zm7.73-.51c0-2.95-1.37-4-3.25-4-2.21,0-3.21,1.36-3.32,4Z" transform="translate(0 0)" fill="#1c2024"></path><path d="M353.34,55.2a5.48,5.48,0,0,1-3.43-1.07l.19-1.08a5.13,5.13,0,0,0,3.23,1.1c1.9,0,2.7-1,2.7-2.35C356,48.67,350,50,350,46.16c0-1.89,1.32-3.06,3.74-3.06a6.53,6.53,0,0,1,3,.67l-.11,1.06a6.82,6.82,0,0,0-2.87-.66c-1.6,0-2.61.75-2.61,1.94,0,2.9,6.06,1.46,6.06,5.58,0,2.11-1.17,3.52-3.79,3.52Z" transform="translate(0 0)" fill="#1c2024"></path><path d="M366.33,53.32h-.06a4,4,0,0,1-3.52,1.84c-2,0-3.45-1-3.45-3.66,0-2.21,1.32-3.48,4.07-3.48a8,8,0,0,1,2.8.52V47.08c0-2.21-.89-2.93-2.88-2.93a6.74,6.74,0,0,0-3.19.73L360,43.83a8,8,0,0,1,3.52-.77c2.75,0,3.86,1.16,3.86,4.19V55h-.87l-.14-1.65Zm-.16-3.85a5.22,5.22,0,0,0-2.64-.56c-2.18,0-3.13.93-3.13,2.55a2.36,2.36,0,0,0,2.65,2.65c1.65,0,3.12-1.18,3.12-2.3Z" transform="translate(0 0)" fill="#1c2024"></path><path d="M370.74,55V43.36l.93-.08,0,1.3,0,1.6h0c.65-1.81,2-3,3.66-3a3.65,3.65,0,0,1,1.07.13l-.1,1.25a2.93,2.93,0,0,0-1-.16c-1.91,0-3.52,1.81-3.52,4.64v6h-1.12Z" transform="translate(0 0)" fill="#1c2024"></path><path d="M383.11,55.22c-3.29,0-4.75-1.7-4.75-6.06s1.49-6,4.75-6,4.7,1.72,4.7,6S386.41,55.22,383.11,55.22Zm0-1c2.52,0,3.5-1.39,3.5-5s-1-5-3.5-5-3.55,1.36-3.55,5S380.58,54.17,383.11,54.17Z" transform="translate(0 0)" fill="#1c2024"></path></svg>